# xmcd CD database file
#
# Track frame offsets:
#	150
#	20100
#	35327
#	55406
#	76856
#	100470
#	127109
#	149622
#	201971
#	254797
#	284529
#	308455
#
# Disc length: 4429 seconds
#
# Revision: 0
# Processed by: cddbd v1.5.2PL0 Copyright (c) Steve Scherf et al.
# Submitted via: CDex 1.78
#
DISCID=b9114b0c
DTITLE=Wolfgang Leyk - Raw Cut
DYEAR=1900
DGENRE=Blues
TTITLE0=Farther Along
TTITLE1=Kind Hearted Woman
TTITLE2=Jimi, Janis and Bobby McGhee
TTITLE3=Vintage
TTITLE4=The Blessing Of Life
TTITLE5=Back Home
TTITLE6=The Tenders
TTITLE7=Lovers Leave 1
TTITLE8=Without You
TTITLE9=Lovers Leave 2
TTITLE10=Waiting
TTITLE11=Jimi, Janis and Bobby McGhee (MT)
EXTD=
EXTT0=
EXTT1=
EXTT2=
EXTT3=
EXTT4=
EXTT5=
EXTT6=
EXTT7=
EXTT8=
EXTT9=
EXTT10=
EXTT11=
PLAYORDER=
